<?xml version="1.0" encoding="utf-8"?>
<!-- Generator: Adobe Illustrator 18.0.0, SVG Export Plug-In . SVG Version: 6.00 Build 0)  -->
<!DOCTYPE svg PUBLIC "-//W3C//DTD SVG 1.1//EN" "http://www.w3.org/Graphics/SVG/1.1/DTD/svg11.dtd">
<svg version="1.1" id="Layer_1" xmlns="http://www.w3.org/2000/svg" xmlns:xlink="http://www.w3.org/1999/xlink" x="0px" y="0px"
	 viewBox="0 0 50 40" enable-background="new 0 0 50 40" xml:space="preserve">
<rect x="0" y="0" fill="#7FCAE8" width="30" height="13.3"/>
<rect x="0" y="13.3" fill="#2ABCB4" width="40" height="13.3"/>
<rect x="0" y="26.7" fill="#166B5B" width="50" height="13.3"/>
<g>
	<path fill="#FFFFFF" d="M3.4,5.4V4.2c0-0.8,0.5-1.5,1.5-1.5c1,0,1.5,0.7,1.5,1.5c0,0.3-0.1,0.3-0.4,0.3c-0.2,0-0.4,0-0.4-0.2
		c0-0.6-0.3-0.9-0.7-0.9c-0.4,0-0.7,0.3-0.7,0.9v1c0,0.6,0.2,1,0.7,1C6,6.3,6.4,7.1,6.4,8v1.2c0,0.8-0.5,1.5-1.5,1.5
		c-1,0-1.5-0.7-1.5-1.5c0-0.3,0.1-0.3,0.4-0.3c0.2,0,0.4,0,0.4,0.2c0,0.6,0.3,0.9,0.7,0.9c0.4,0,0.7-0.3,0.7-0.9V8
		c0-0.6-0.2-1-0.7-1C3.8,7,3.4,6.3,3.4,5.4z"/>
	<path fill="#FFFFFF" d="M8,10.3V3.8c0-0.2,0-0.2-0.2-0.2H7.1c-0.2,0-0.3,0-0.3-0.4c0-0.4,0.1-0.4,0.3-0.4h2.6c0.2,0,0.3,0,0.3,0.4
		c0,0.4-0.1,0.4-0.3,0.4H9.1c-0.2,0-0.2,0-0.2,0.2v6.5c0,0.2,0,0.3-0.4,0.3C8,10.5,8,10.4,8,10.3z"/>
	<path fill="#FFFFFF" d="M11.7,3.3l1.1,6.9c0,0,0,0.1,0,0.1c0,0.1-0.1,0.1-0.3,0.1c-0.4,0-0.4-0.1-0.4-0.3L12,9.5
		c0-0.1-0.1-0.2-0.2-0.2h-0.9c-0.1,0-0.2,0-0.2,0.2l-0.1,0.8c0,0.2,0,0.3-0.4,0.3c-0.3,0-0.3-0.1-0.3-0.1c0,0,0-0.1,0-0.1l1.1-6.9
		c0.1-0.3,0.1-0.6,0.5-0.6C11.7,2.8,11.7,3.1,11.7,3.3z M11.8,8.5c0,0,0,0-0.4-2.6c0-0.3-0.1-0.3-0.1-0.3c-0.1,0-0.1,0-0.1,0.3
		c-0.4,2.6-0.4,2.6-0.4,2.6c0,0.1,0.1,0.1,0.2,0.1h0.6C11.7,8.6,11.8,8.6,11.8,8.5z"/>
	<path fill="#FFFFFF" d="M13.4,10.3V3.2c0-0.4,0.1-0.4,0.3-0.4h1.6c1.1,0,1.3,0.5,1.3,1.5v1.2c0,1-0.1,1.5-1.1,1.5
		c-0.1,0-0.1,0-0.1,0c0,0,0,0.1,0,0.2l1.1,3.1c0,0,0,0.1,0,0.2c0,0.1-0.1,0.1-0.3,0.1c-0.4,0-0.4-0.1-0.5-0.3l-1.1-3
		C14.6,7.1,14.5,7,14.4,7c-0.1,0-0.2,0.1-0.2,0.3v3c0,0.2,0,0.3-0.4,0.3C13.4,10.5,13.4,10.4,13.4,10.3z M15.8,5.3V4.5
		c0-0.8,0-1-0.7-1h-0.7c-0.2,0-0.2,0-0.2,0.2V6c0,0.2,0,0.2,0.2,0.2h0.7C15.8,6.3,15.8,6,15.8,5.3z"/>
	<path fill="#FFFFFF" d="M18.2,10.3V3.8c0-0.2,0-0.2-0.2-0.2h-0.7c-0.2,0-0.3,0-0.3-0.4c0-0.4,0.1-0.4,0.3-0.4h2.6
		c0.2,0,0.3,0,0.3,0.4c0,0.4-0.1,0.4-0.3,0.4h-0.7c-0.2,0-0.2,0-0.2,0.2v6.5c0,0.2,0,0.3-0.4,0.3C18.2,10.5,18.2,10.4,18.2,10.3z"/>
	<path fill="#FFFFFF" d="M20.2,10.5c-0.3,0-0.3,0-0.3-0.4c0-0.5,0-0.5,0.3-0.5h0.2c0.3,0,0.3,0,0.3,0.5c0,0.4,0,0.4-0.3,0.4H20.2z"
		/>
</g>
<g>
	<path fill="#FFFFFF" d="M3.2,18.7v-1.2c0-0.8,0.5-1.5,1.5-1.5c1,0,1.5,0.7,1.5,1.5c0,0.3-0.1,0.3-0.4,0.3c-0.2,0-0.4,0-0.4-0.2
		c0-0.6-0.3-0.9-0.7-0.9c-0.4,0-0.7,0.3-0.7,0.9v1c0,0.6,0.2,1,0.7,1c1.1,0,1.5,0.8,1.5,1.7v1.2c0,0.8-0.5,1.5-1.5,1.5
		c-1,0-1.5-0.7-1.5-1.5c0-0.3,0.1-0.3,0.4-0.3c0.2,0,0.4,0,0.4,0.2c0,0.6,0.3,0.9,0.7,0.9c0.4,0,0.7-0.3,0.7-0.9v-1
		c0-0.6-0.2-1-0.7-1C3.6,20.4,3.2,19.6,3.2,18.7z"/>
	<path fill="#FFFFFF" d="M7.8,23.6v-6.5c0-0.2,0-0.2-0.2-0.2H6.9c-0.2,0-0.3,0-0.3-0.4c0-0.4,0.1-0.4,0.3-0.4h2.6
		c0.2,0,0.3,0,0.3,0.4c0,0.4-0.1,0.4-0.3,0.4H8.8c-0.2,0-0.2,0-0.2,0.2v6.5c0,0.2,0,0.3-0.4,0.3C7.8,23.9,7.8,23.8,7.8,23.6z"/>
	<path fill="#FFFFFF" d="M11.5,16.7l1.1,6.9c0,0,0,0.1,0,0.1c0,0.1-0.1,0.1-0.3,0.1c-0.4,0-0.4-0.1-0.4-0.3l-0.1-0.8
		c0-0.1-0.1-0.2-0.2-0.2h-0.9c-0.1,0-0.2,0-0.2,0.2l-0.1,0.8c0,0.2,0,0.3-0.4,0.3c-0.3,0-0.3-0.1-0.3-0.1c0,0,0-0.1,0-0.1l1.1-6.9
		c0.1-0.3,0.1-0.6,0.5-0.6C11.4,16.1,11.5,16.4,11.5,16.7z M11.6,21.8c0,0,0,0-0.4-2.6c0-0.3-0.1-0.3-0.1-0.3c-0.1,0-0.1,0-0.1,0.3
		c-0.4,2.6-0.4,2.6-0.4,2.6c0,0.1,0.1,0.1,0.2,0.1h0.6C11.5,21.9,11.6,21.9,11.6,21.8z"/>
	<path fill="#FFFFFF" d="M13.4,23.6v-3.4c0-0.2-0.1-0.3-0.2-0.8l-0.9-2.9c0-0.1,0-0.1,0-0.1c0-0.1,0.1-0.1,0.3-0.1
		c0.4,0,0.4,0.1,0.5,0.3l0.5,1.6c0.1,0.4,0.1,0.4,0.2,0.4c0.1,0,0.1-0.1,0.2-0.4l0.5-1.6c0.1-0.2,0.1-0.3,0.5-0.3
		c0.3,0,0.3,0,0.3,0.1c0,0,0,0.1,0,0.1l-0.9,2.9c-0.2,0.5-0.2,0.6-0.2,0.8v3.4c0,0.2,0,0.3-0.4,0.3C13.4,23.9,13.4,23.8,13.4,23.6z"
		/>
	<path fill="#FFFFFF" d="M15.5,23.9c-0.3,0-0.3,0-0.3-0.4c0-0.5,0-0.5,0.3-0.5h0.2c0.3,0,0.3,0,0.3,0.5c0,0.4,0,0.4-0.3,0.4H15.5z"
		/>
</g>
<g>
	<path fill="#FFFFFF" d="M3.8,35.7c0,0.6,0.3,0.9,0.8,0.9c0.6,0,0.8-0.3,0.8-0.9v-1.3c0-0.2,0-0.2-0.2-0.2H5.1c-0.2,0-0.3,0-0.3-0.4
		c0-0.4,0.1-0.4,0.3-0.4h0.8c0.2,0,0.3,0,0.3,0.4v2c0,1-0.6,1.5-1.6,1.5c-1.1,0-1.6-0.7-1.6-1.5v-4.9c0-0.8,0.5-1.5,1.6-1.5
		c1.1,0,1.6,0.7,1.6,1.5c0,0.3-0.1,0.3-0.4,0.3c-0.2,0-0.4,0-0.4-0.2c0-0.6-0.3-0.9-0.8-0.9c-0.5,0-0.8,0.3-0.8,0.9V35.7z"/>
	<path fill="#FFFFFF" d="M6.9,36.9v-7.1c0-0.4,0.1-0.4,0.3-0.4h1.6c1.1,0,1.3,0.5,1.3,1.5v1.2c0,1-0.1,1.5-1.1,1.5
		c-0.1,0-0.1,0-0.1,0c0,0,0,0.1,0,0.2l1.1,3.1c0,0,0,0.1,0,0.2s-0.1,0.1-0.3,0.1c-0.4,0-0.4-0.1-0.5-0.3l-1.1-3
		c-0.1-0.2-0.2-0.3-0.3-0.3c-0.1,0-0.2,0.1-0.2,0.3v3c0,0.2,0,0.3-0.4,0.3C6.9,37.2,6.9,37.1,6.9,36.9z M9.3,31.9v-0.8
		c0-0.8,0-1-0.7-1H7.9c-0.2,0-0.2,0-0.2,0.2v2.2c0,0.2,0,0.2,0.2,0.2h0.7C9.3,32.9,9.3,32.7,9.3,31.9z"/>
	<path fill="#FFFFFF" d="M13.9,35.8c0,0.8-0.5,1.5-1.6,1.5c-1.1,0-1.6-0.7-1.6-1.5v-4.9c0-0.8,0.5-1.5,1.6-1.5
		c1.1,0,1.6,0.7,1.6,1.5V35.8z M11.5,35.7c0,0.6,0.3,0.9,0.8,0.9c0.6,0,0.8-0.3,0.8-0.9V31c0-0.6-0.3-0.9-0.8-0.9
		c-0.5,0-0.8,0.3-0.8,0.9V35.7z"/>
	<path fill="#FFFFFF" d="M16.9,34c0,0.2,0.1,0.2,0.1,0.2c0.1,0,0.1-0.1,0.1-0.2l0.2-4.3c0-0.2,0-0.3,0.4-0.3c0.3,0,0.4,0.1,0.4,0.3
		l-0.2,7.2c0,0.2,0,0.3-0.4,0.3c-0.4,0-0.5-0.1-0.5-0.3l-0.2-1.4c-0.1-0.7-0.2-0.7-0.4-0.7c-0.2,0-0.3,0-0.4,0.7l-0.2,1.4
		c0,0.2-0.1,0.3-0.5,0.3c-0.3,0-0.4-0.1-0.4-0.3l-0.2-7.2c0-0.2,0.1-0.3,0.4-0.3c0.3,0,0.4,0.1,0.4,0.3l0.2,4.3c0,0.2,0,0.2,0.1,0.2
		c0.1,0,0.1-0.1,0.1-0.2l0.3-1.2c0.2-0.7,0.2-0.9,0.3-0.9c0.1,0,0.1,0.2,0.3,0.9L16.9,34z"/>
	<path fill="#FFFFFF" d="M18.9,37.2c-0.3,0-0.3,0-0.3-0.4c0-0.5,0-0.5,0.3-0.5H19c0.3,0,0.3,0,0.3,0.5c0,0.4,0,0.4-0.3,0.4H18.9z"/>
</g>
</svg>
