<svg xmlns="http://www.w3.org/2000/svg" viewBox="0 151.2 612 488.4" enable-background="new 0 151.2 612 488.4"><path fill="#7FCAE8" d="M0 151.2h367.2V314H0z"/><path fill="#2ABCB4" d="M0 313h489.6v162.8H0z"/><path fill="#166B5B" d="M0 475.8h612v162.8H0z"/><g fill="#fff"><path d="M41.6 217.3v-14.7c0-9.8 6.1-18.4 18.4-18.4s18.4 8.6 18.4 18.4c0 3.7-1.2 3.7-4.9 3.7-2.4 0-4.9 0-4.9-2.4 0-7.3-3.7-11-8.6-11-4.9 0-8.6 3.7-8.6 11v12.2c0 7.3 2.4 12.2 8.6 12.2 13.5 0 18.4 9.8 18.4 20.8v14.7c0 9.8-6.1 18.4-18.4 18.4s-18.4-8.6-18.4-18.4c0-3.7 1.2-3.7 4.9-3.7 2.4 0 4.9 0 4.9 2.4 0 7.3 3.7 11 8.6 11s8.6-3.7 8.6-11V249c0-7.3-2.4-12.2-8.6-12.2-13.5.1-18.4-8.5-18.4-19.5zM97.9 277.3v-79.6c0-2.4 0-2.4-2.4-2.4h-8.6c-2.4 0-3.7 0-3.7-4.9s1.2-4.9 3.7-4.9h31.8c2.4 0 3.7 0 3.7 4.9s-1.2 4.9-3.7 4.9h-7.3c-2.4 0-2.4 0-2.4 2.4v79.6c0 2.4 0 3.7-4.9 3.7-6.2-1.3-6.2-2.5-6.2-3.7zM143.2 191.6l13.5 84.5v1.2c0 1.2-1.2 1.2-3.7 1.2-4.9 0-4.9-1.2-4.9-3.7l-1.2-7.3c0-1.2-1.2-2.4-2.4-2.4h-11c-1.2 0-2.4 0-2.4 2.4l-1.2 9.8c0 2.4 0 3.7-4.9 3.7-3.7 0-3.7-1.2-3.7-1.2v-1.2l13.5-84.5c1.2-3.7 1.2-7.3 6.1-7.3 2.3-1.3 2.3 2.3 2.3 4.8zm1.2 63.6l-4.9-31.8c0-3.7-1.2-3.7-1.2-3.7-1.2 0-1.2 0-1.2 3.7l-4.9 31.8c0 1.2 1.2 1.2 2.4 1.2h7.3c1.3.1 2.5.1 2.5-1.2zM164 277.3v-86.9c0-4.9 1.2-4.9 3.7-4.9h19.6c13.5 0 15.9 6.1 15.9 18.4v14.7c0 12.2-1.2 18.4-13.5 18.4h-1.2v2.4l13.5 37.9v2.4s-1.2 1.2-3.7 1.2c-4.9 0-4.9-1.2-6.1-3.7l-13.5-36.7c0-2.4-1.2-3.7-2.4-3.7s-2.4 1.2-2.4 3.7v36.7c0 2.4 0 3.7-4.9 3.7-5-1.2-5-2.4-5-3.6zm29.4-61.2v-9.8c0-9.8 0-12.2-8.6-12.2h-8.6c-2.4 0-2.4 0-2.4 2.4v28.2c0 2.4 0 2.4 2.4 2.4h8.6c8.6 1.2 8.6-2.5 8.6-11zM222.8 277.3v-79.6c0-2.4 0-2.4-2.4-2.4h-8.6c-2.4 0-3.7 0-3.7-4.9s1.2-4.9 3.7-4.9h31.8c2.4 0 3.7 0 3.7 4.9s-1.2 4.9-3.7 4.9H235c-2.4 0-2.4 0-2.4 2.4v79.6c0 2.4 0 3.7-4.9 3.7-4.9-1.3-4.9-2.5-4.9-3.7zM247.2 279.7c-3.7 0-3.7 0-3.7-4.9 0-6.1 0-6.1 3.7-6.1h2.4c3.7 0 3.7 0 3.7 6.1 0 4.9 0 4.9-3.7 4.9h-2.4z"/></g><g fill="#fff"><path d="M39.2 379.1v-14.7c0-9.8 6.1-18.4 18.4-18.4S76 354.6 76 364.4c0 3.7-1.2 3.7-4.9 3.7-2.4 0-4.9 0-4.9-2.4 0-7.3-3.7-11-8.6-11s-8.6 3.7-8.6 11v12.2c0 7.3 2.4 12.2 8.6 12.2 13.5 0 18.4 9.8 18.4 20.8v14.7c0 9.8-6.1 18.4-18.4 18.4s-18.4-8.6-18.4-18.4c0-3.7 1.2-3.7 4.9-3.7 2.4 0 4.9 0 4.9 2.4 0 7.3 3.7 11 8.6 11s8.6-3.7 8.6-11v-12.2c0-7.3-2.4-12.2-8.6-12.2-13.5 0-18.4-9.8-18.4-20.8zM95.5 439.1v-79.6c0-2.4 0-2.4-2.4-2.4h-8.6c-2.4 0-3.7 0-3.7-4.9s1.2-4.9 3.7-4.9h31.8c2.4 0 3.7 0 3.7 4.9s-1.2 4.9-3.7 4.9h-8.6c-2.4 0-2.4 0-2.4 2.4v79.6c0 2.4 0 3.7-4.9 3.7-4.9-.1-4.9-1.3-4.9-3.7zM140.8 354.6l13.5 84.5v1.2c0 1.2-1.2 1.2-3.7 1.2-4.9 0-4.9-1.2-4.9-3.7l-1.2-9.8c0-1.2-1.2-2.4-2.4-2.4h-11c-1.2 0-2.4 0-2.4 2.4l-1.2 9.8c0 2.4 0 3.7-4.9 3.7-3.7 0-3.7-1.2-3.7-1.2v-1.2l13.5-84.5c1.2-3.7 1.2-7.3 6.1-7.3 1 0 2.3 3.6 2.3 7.3zM142 417l-4.9-31.8c0-3.7-1.2-3.7-1.2-3.7-1.2 0-1.2 0-1.2 3.7l-4.9 31.8c0 1.2 1.2 1.2 2.4 1.2h7.3c1.3.1 2.5.1 2.5-1.2zM164 439.1v-41.6c0-2.4-1.2-3.7-2.4-9.8l-11-35.5V351c0-1.2 1.2-1.2 3.7-1.2 4.9 0 4.9 1.2 6.1 3.7l6.1 19.6c1.2 4.9 1.2 4.9 2.4 4.9s1.2-1.2 2.4-4.9l6.1-19.6c1.2-2.4 1.2-3.7 6.1-3.7 3.7 0 3.7 0 3.7 1.2v1.2l-11 35.5c-2.4 6.1-2.4 7.3-2.4 9.8v41.6c0 2.4 0 3.7-4.9 3.7-4.9-.1-4.9-1.3-4.9-3.7zM189.7 442.7c-3.7 0-3.7 0-3.7-4.9 0-6.1 0-6.1 3.7-6.1h2.4c3.7 0 3.7 0 3.7 6.1 0 4.9 0 4.9-3.7 4.9h-2.4z"/></g><g fill="#fff"><path d="M46.5 585.9c0 7.3 3.7 11 9.8 11 7.3 0 9.8-3.7 9.8-11V570c0-2.4 0-2.4-2.4-2.4h-1.2c-2.4 0-3.7 0-3.7-4.9s1.2-4.9 3.7-4.9h9.8c2.4 0 3.7 0 3.7 4.9v24.5c0 12.2-7.3 18.4-19.6 18.4-13.5 0-19.6-8.6-19.6-18.4v-60c0-9.8 6.1-18.4 19.6-18.4S76 517.4 76 527.2c0 3.7-1.2 3.7-4.9 3.7-2.4 0-4.9 0-4.9-2.4 0-7.3-3.7-11-9.8-11s-9.8 3.7-9.8 11v57.4zM84.5 600.6v-86.9c0-4.9 1.2-4.9 3.7-4.9h19.6c13.5 0 15.9 6.1 15.9 18.4v14.7c0 12.2-1.2 18.4-13.5 18.4H109v2.4l13.5 37.9v2.4c0 1.2-1.2 1.2-3.7 1.2-4.9 0-4.9-1.2-6.1-3.7l-13.5-36.7c-1.2-2.4-2.4-3.7-3.7-3.7s-2.4 1.2-2.4 3.7v36.7c0 2.4 0 3.7-4.9 3.7-3.7.1-3.7-1.1-3.7-3.6zm29.3-61.2v-9.8c0-9.8 0-12.2-8.6-12.2h-8.6c-2.4 0-2.4 0-2.4 2.4v26.9c0 2.4 0 2.4 2.4 2.4h8.6c8.6 2.6 8.6.1 8.6-9.7zM170.1 587.2c0 9.8-6.1 18.4-19.6 18.4S131 597 131 587.2v-60c0-9.8 6.1-18.4 19.6-18.4s19.6 8.6 19.6 18.4v60zm-29.3-1.3c0 7.3 3.7 11 9.8 11 7.3 0 9.8-3.7 9.8-11v-57.5c0-7.3-3.7-11-9.8-11s-9.8 3.7-9.8 11v57.5zM206.9 565.1c0 2.4 1.2 2.4 1.2 2.4 1.2 0 1.2-1.2 1.2-2.4l2.4-52.6c0-2.4 0-3.7 4.9-3.7 3.7 0 4.9 1.2 4.9 3.7l-2.4 88.1c0 2.4 0 3.7-4.9 3.7s-6.1-1.2-6.1-3.7l-2.4-17.1c-1.2-8.6-2.4-8.6-4.9-8.6-2.4 0-3.7 0-4.9 8.6l-2.4 17.1c0 2.4-1.2 3.7-6.1 3.7-3.7 0-4.9-1.2-4.9-3.7l-2.4-88.1c0-2.4 1.2-3.7 4.9-3.7s4.9 1.2 4.9 3.7l2.4 52.6c0 2.4 0 2.4 1.2 2.4s1.2-1.2 1.2-2.4l3.7-14.7c2.4-8.6 2.4-11 3.7-11 1.2 0 1.2 2.4 3.7 11l1.1 14.7zM231.3 604.3c-3.7 0-3.7 0-3.7-4.9 0-6.1 0-6.1 3.7-6.1h1.2c3.7 0 3.7 0 3.7 6.1 0 4.9 0 4.9-3.7 4.9h-1.2z"/></g></svg>