<?xml version="1.0" encoding="utf-8"?>
<!-- Generator: Adobe Illustrator 18.0.0, SVG Export Plug-In . SVG Version: 6.00 Build 0)  -->
<!DOCTYPE svg PUBLIC "-//W3C//DTD SVG 1.1//EN" "http://www.w3.org/Graphics/SVG/1.1/DTD/svg11.dtd">
<svg version="1.1" id="Layer_1" xmlns="http://www.w3.org/2000/svg" xmlns:xlink="http://www.w3.org/1999/xlink" x="0px" y="0px"
	 viewBox="0 151.2 612 489.6" enable-background="new 0 151.2 612 489.6" xml:space="preserve">
<rect y="151.2" fill="#7FCAE8" width="367.2" height="162.8"/>
<rect y="314" fill="#2ABCB4" width="489.6" height="162.8"/>
<rect y="478" fill="#166B5B" width="612" height="162.8"/>
<g>
	<path fill="#FFFFFF" d="M954.4-973.5v-57c0-40.7,24.4-77.4,73.3-77.4c53,0,77.4,32.6,77.4,77.4c0,12.2-4.1,12.2-20.4,12.2
		c-12.2,0-20.4,0-20.4-8.1c0-28.5-12.2-44.8-36.7-44.8c-20.4,0-32.6,16.3-32.6,44.8v48.9c0,32.6,8.1,53,36.7,53
		c57,0,77.4,36.7,77.4,85.6v61.1c0,40.7-24.4,77.4-73.3,77.4s-77.4-32.6-77.4-77.4c0-12.2,4.1-12.2,20.4-12.2
		c12.2,0,20.4,0,20.4,8.1c0,28.5,12.2,44.8,36.7,44.8c24.4,0,36.7-16.3,36.7-44.8v-57c0-32.6-8.1-53-36.7-53
		C974.7-892,954.4-928.7,954.4-973.5z"/>
	<path fill="#FFFFFF" d="M1190.6-725v-325.9c0-8.1-4.1-12.2-12.2-12.2h-36.7c-8.1-4.1-12.2-4.1-12.2-20.4c0-20.4,4.1-20.4,12.2-20.4
		h130.4c8.1,0,12.2,0,12.2,20.4c4.1,16.3,0,16.3-8.1,16.3h-32.6c-8.1,0-12.2,4.1-12.2,12.2v325.9c0,8.1,0,12.2-20.4,12.2
		C1190.6-712.8,1190.6-716.8,1190.6-725z"/>
	<path fill="#FFFFFF" d="M1378-1075.3l57,350.4c0,4.1,0,4.1,0,8.1c0,4.1-4.1,8.1-16.3,8.1c-20.4,0-20.4-4.1-20.4-12.2l-8.1-36.7
		c0-8.1-8.1-8.1-12.2-8.1h-44.8c-8.1,0-12.2,0-12.2,8.1l-8.1,36.7c0,8.1-4.1,12.2-20.4,12.2c-12.2,0-16.3-4.1-16.3-8.1
		c0,0,0-4.1,0-8.1l57-350.4c4.1-16.3,4.1-28.5,24.4-28.5C1374-1103.9,1374-1087.6,1378-1075.3z M1378-818.7c0,0,0,0-20.4-130.4
		c-4.1-16.3-4.1-16.3-8.1-16.3c-4.1,0-4.1,0-8.1,16.3c-16.3,130.4-16.3,130.4-16.3,130.4c0,4.1,4.1,8.1,12.2,8.1h32.6
		C1378-810.5,1378-810.5,1378-818.7z"/>
	<path fill="#FFFFFF" d="M1459.5-725v-358.5c0-20.4,4.1-20.4,12.2-20.4h81.5c57,0,65.2,24.4,65.2,77.4v57c0,53-8.1,77.4-57,77.4
		c-4.1,0-4.1,0-4.1,4.1c0,0,0,4.1,4.1,8.1l57,154.8c0,0,0,4.1,0,8.1s-4.1,4.1-16.3,4.1c-20.4,0-20.4-4.1-24.4-12.2l-57-150.7
		c-4.1-8.1-8.1-12.2-12.2-12.2s-8.1,4.1-8.1,12.2v154.8c0,8.1,0,12.2-20.4,12.2C1459.5-712.8,1459.5-716.8,1459.5-725z
		 M1581.7-977.6v-40.7c0-36.7,0-48.9-32.6-48.9h-36.7c-8.1,0-12.2,4.1-12.2,12.2v114.1c0,8.1,4.1,12.2,12.2,12.2h36.7
		C1577.6-928.7,1581.7-940.9,1581.7-977.6z"/>
	<path fill="#FFFFFF" d="M1699.9-725v-325.9c0-8.1-4.1-12.2-12.2-12.2H1651c-8.1,0-12.2,0-12.2-16.3c0-20.4,4.1-20.4,12.2-20.4
		h130.4c8.1,0,12.2,0,12.2,20.4c8.1,12.2,4.1,12.2-8.1,12.2h-32.6c-8.1,0-12.2,4.1-12.2,12.2v325.9c0,8.1,0,12.2-20.4,12.2
		C1699.9-712.8,1699.9-716.8,1699.9-725z"/>
	<path fill="#FFFFFF" d="M1805.8-712.8c-12.2,0-16.3,0-16.3-24.4c0-24.4,0-24.4,16.3-24.4h8.1c12.2,0,16.3,0,16.3,24.4
		c0,24.4,0,24.4-16.3,24.4H1805.8z"/>
</g>
<g>
	<path fill="#FFFFFF" d="M1859.7-974.7v-61.1c0-40.7,24.4-77.4,73.3-77.4s77.4,32.6,77.4,77.4c0,12.2-4.1,12.2-20.4,12.2
		c-12.2,0-20.4,0-20.4-8.1c0-28.5-12.2-44.8-36.7-44.8c-24.4,0-36.7,16.3-36.7,44.8v48.9c0,32.6,8.1,53,36.7,53
		c57,0,77.4,36.7,77.4,85.6v61.1c0,40.7-24.4,77.4-73.3,77.4s-77.4-32.6-77.4-77.4c0-12.2,4.1-12.2,20.4-12.2
		c12.2,0,20.4,0,20.4,8.1c0,28.5,12.2,44.8,36.7,44.8c24.4,0,36.7-16.3,36.7-44.8v-48.9c0-32.6-8.1-53-36.7-53
		C1880.1-893.2,1859.7-929.9,1859.7-974.7z"/>
	<path fill="#FFFFFF" d="M2096-730.3v-325.9c0-8.1-4.1-12.2-12.2-12.2h-36.7c-8.1,0-12.2,0-12.2-16.3c0-20.4,4.1-20.4,12.2-20.4
		h130.4c8.1,0,12.2,0,12.2,20.4c0,16.3-4.1,16.3-12.2,16.3h-32.6c-8.1,0-12.2,4.1-12.2,12.2v325.9c0,8.1,0,12.2-20.4,12.2
		C2096-714,2096-718.1,2096-730.3z"/>
	<path fill="#FFFFFF" d="M2283.4-1076.6l57,350.4c0,4.1,0,4.1,0,8.1c0,4.1-4.1,8.1-16.3,8.1c-20.4,0-20.4-4.1-20.4-12.2l-8.1-36.7
		c0-8.1-8.1-8.1-12.2-8.1h-44.8c-8.1,0-12.2,0-12.2,8.1l-8.1,36.7c0,8.1-4.1,12.2-20.4,12.2c-12.2,0-16.3-4.1-16.3-8.1
		c0,0,0-4.1,0-8.1l57-350.4c4.1-16.3,4.1-28.5,24.4-28.5C2279.4-1105.1,2279.4-1088.8,2283.4-1076.6z M2283.4-819.9
		c0,0,0,0-20.4-130.4c-4.1-16.3-4.1-16.3-8.1-16.3c-4.1,0-4.1,0-8.1,16.3c-16.3,130.4-16.3,130.4-16.3,130.4c0,4.1,4.1,8.1,12.2,8.1
		h32.6C2283.4-811.8,2283.4-811.8,2283.4-819.9z"/>
	<path fill="#FFFFFF" d="M2377.1-730.3v-171.1c0-8.1-4.1-16.3-12.2-40.7l-44.8-150.7c0-4.1,0-4.1,0-8.1c0-4.1,4.1-8.1,16.3-8.1
		c20.4,0,20.4,4.1,24.4,12.2l24.4,81.5c4.1,20.4,8.1,20.4,12.2,20.4c4.1,0,4.1-4.1,12.2-20.4l24.4-81.5c4.1-8.1,4.1-12.2,24.4-12.2
		c12.2,0,16.3,4.1,16.3,8.1c0,0,0,4.1,0,8.1l-44.8,146.7c-8.1,24.4-8.1,32.6-8.1,40.7v171.1c0,8.1,0,12.2-20.4,12.2
		C2377.1-714,2377.1-718.1,2377.1-730.3z"/>
	<path fill="#FFFFFF" d="M2483-714c-12.2,0-16.3,0-16.3-24.4s0-24.4,16.3-24.4h8.1c12.2,0,16.3,0,16.3,24.4s0,24.4-16.3,24.4H2483z"
		/>
</g>
<g>
	<path fill="#FFFFFF" d="M2579.5-795.4c0,28.5,12.2,44.8,40.7,44.8s40.7-16.3,40.7-44.8v-65.2c0-8.1-4.1-12.2-12.2-12.2l0,0
		c-8.1,0-12.2,0-12.2-16.3c0-20.4,4.1-20.4,12.2-20.4h40.7c8.1,0,12.2,0,12.2,20.4v101.8c0,48.9-32.6,77.4-81.5,77.4
		c-57,0-81.5-32.6-81.5-77.4v-248.5c0-40.7,24.4-77.4,81.5-77.4c57,0,81.5,32.6,81.5,77.4c0,12.2-4.1,12.2-20.4,12.2
		c-12.2,0-20.4,0-20.4-8.1c0-28.5-12.2-44.8-40.7-44.8s-40.7,16.3-40.7,44.8C2579.5-1031.7,2579.5-795.4,2579.5-795.4z"/>
	<path fill="#FFFFFF" d="M2738.4-734.3v-358.5c0-20.4,4.1-20.4,12.2-20.4h81.5c57,0,65.2,24.4,65.2,77.4v57c0,53-8.1,77.4-57,77.4
		c-4.1,0-4.1,0-4.1,4.1c0,0,0,4.1,4.1,8.1l57,154.8c0,0,0,4.1,0,8.1s-4.1,4.1-16.3,4.1c-20.4,0-20.4-4.1-24.4-12.2l-57-150.7
		c-4.1-8.1-8.1-12.2-12.2-12.2c-4.1,0-8.1,4.1-8.1,12.2v154.8c0,8.1,0,12.2-20.4,12.2C2738.4-722.1,2738.4-726.1,2738.4-734.3z
		 M2860.6-986.9v-40.7c0-36.7,0-48.9-32.6-48.9h-36.7c-8.1,0-12.2,4.1-12.2,12.2v114.1c0,8.1,4.1,12.2,12.2,12.2h36.7
		C2860.6-938,2860.6-950.2,2860.6-986.9z"/>
	<path fill="#FFFFFF" d="M3096.9-791.3c0,40.7-24.4,77.4-81.5,77.4c-57,0-81.5-32.6-81.5-77.4v-248.5c0-40.7,24.4-77.4,81.5-77.4
		c57,0,81.5,32.6,81.5,77.4V-791.3z M2974.7-795.4c0,28.5,12.2,44.8,40.7,44.8c28.5,0,40.7-16.3,40.7-44.8v-240.4
		c0-28.5-12.2-44.8-40.7-44.8c-28.5,0-40.7,16.3-40.7,44.8V-795.4z"/>
	<path fill="#FFFFFF" d="M3243.6-880.9c0,8.1,4.1,12.2,8.1,12.2s4.1-4.1,4.1-12.2l8.1-215.9c0-8.1,0-12.2,20.4-12.2
		c16.3,0,20.4,4.1,20.4,12.2l-12.2,362.6c0,8.1,0,12.2-20.4,12.2c-20.4,0-24.4-4.1-24.4-12.2l-12.2-73.3
		c-4.1-32.6-12.2-36.7-20.4-36.7s-12.2,0-20.4,36.7l-12.2,73.3c0,8.1-4.1,12.2-24.4,12.2c-16.3,0-20.4-4.1-20.4-12.2l-8.1-362.6
		c0-8.1,4.1-12.2,20.4-12.2s20.4,4.1,20.4,12.2l8.1,215.9c0,8.1,0,12.2,4.1,12.2c4.1,0,4.1-4.1,8.1-12.2l12.2-61.1
		c8.1-36.7,8.1-44.8,16.3-44.8c4.1,0,8.1,8.1,16.3,44.8L3243.6-880.9z"/>
	<path fill="#FFFFFF" d="M3345.4-722.1c-12.2,0-16.3,0-16.3-24.4s0-24.4,16.3-24.4h8.1c12.2,0,16.3,0,16.3,24.4s0,24.4-16.3,24.4
		H3345.4z"/>
</g>
</svg>
