<?xml version="1.0" encoding="utf-8"?>
<!-- Generator: Adobe Illustrator 18.0.0, SVG Export Plug-In . SVG Version: 6.00 Build 0)  -->
<!DOCTYPE svg PUBLIC "-//W3C//DTD SVG 1.1//EN" "http://www.w3.org/Graphics/SVG/1.1/DTD/svg11.dtd">
<svg version="1.1" id="Layer_1" xmlns="http://www.w3.org/2000/svg" xmlns:xlink="http://www.w3.org/1999/xlink" x="0px" y="0px"
	 viewBox="0 151.2 2879.3 489.6" enable-background="new 0 151.2 2879.3 489.6" xml:space="preserve">
<rect y="151.2" fill="#7FCAE8" width="367.2" height="162.8"/>
<rect y="314" fill="#2ABCB4" width="489.6" height="162.8"/>
<rect y="478" fill="#166B5B" width="612" height="162.8"/>
<g>
	<path fill="#686868" d="M718.4,337.6v-51c0-36.4,21.9-69.2,65.6-69.2c47.4,0,69.2,29.2,69.2,69.2c0,10.9-3.6,10.9-18.2,10.9
		c-10.9,0-18.2,0-18.2-7.3c0-25.5-10.9-40.1-32.8-40.1c-18.2,0-29.2,14.6-29.2,40.1v43.7c0,29.2,7.3,47.4,32.8,47.4
		c51,0,69.2,32.8,69.2,76.5v54.7c0,36.4-21.9,69.2-65.6,69.2c-43.7,0-69.2-29.2-69.2-69.2c0-10.9,3.6-10.9,18.2-10.9
		c10.9,0,18.2,0,18.2,7.3c0,25.5,10.9,40.1,32.8,40.1c21.9,0,32.8-14.6,32.8-40.1v-51c0-29.2-7.3-47.4-32.8-47.4
		C736.7,410.5,718.4,377.7,718.4,337.6z"/>
	<path fill="#686868" d="M929.8,559.9V268.3c0-7.3-3.6-10.9-10.9-10.9h-32.8c-7.3-3.6-10.9-3.6-10.9-18.2c0-18.2,3.6-18.2,10.9-18.2
		h116.6c7.3,0,10.9,0,10.9,18.2c3.6,14.6,0,14.6-7.3,14.6h-29.2c-7.3,0-10.9,3.6-10.9,10.9v291.6c0,7.3,0,10.9-18.2,10.9
		C929.8,570.8,929.8,567.2,929.8,559.9z"/>
	<path fill="#686868" d="M1097.5,246.5l51,313.4c0,3.6,0,3.6,0,7.3s-3.6,7.3-14.6,7.3c-18.2,0-18.2-3.6-18.2-10.9l-7.3-32.8
		c0-7.3-7.3-7.3-10.9-7.3h-40.1c-7.3,0-10.9,0-10.9,7.3l-7.3,32.8c0,7.3-3.6,10.9-18.2,10.9c-10.9,0-14.6-3.6-14.6-7.3
		c0,0,0-3.6,0-7.3l51-313.4c3.6-14.6,3.6-25.5,21.9-25.5C1093.8,221,1093.8,235.6,1097.5,246.5z M1097.5,476.1c0,0,0,0-18.2-116.6
		c-3.6-14.6-3.6-14.6-7.3-14.6c-3.6,0-3.6,0-7.3,14.6c-14.6,116.6-14.6,116.6-14.6,116.6c0,3.6,3.6,7.3,10.9,7.3h29.2
		C1097.5,483.4,1097.5,483.4,1097.5,476.1z"/>
	<path fill="#686868" d="M1170.4,559.9V239.2c0-18.2,3.6-18.2,10.9-18.2h72.9c51,0,58.3,21.9,58.3,69.2v51c0,47.4-7.3,69.2-51,69.2
		c-3.6,0-3.6,0-3.6,3.6c0,0,0,3.6,3.6,7.3l51,138.5c0,0,0,3.6,0,7.3c0,3.6-3.6,3.6-14.6,3.6c-18.2,0-18.2-3.6-21.9-10.9l-51-134.8
		c-3.6-7.3-7.3-10.9-10.9-10.9s-7.3,3.6-7.3,10.9v138.5c0,7.3,0,10.9-18.2,10.9C1170.4,570.8,1170.4,567.2,1170.4,559.9z
		 M1279.7,333.9v-36.4c0-32.8,0-43.7-29.2-43.7h-32.8c-7.3,0-10.9,3.6-10.9,10.9v102c0,7.3,3.6,10.9,10.9,10.9h32.8
		C1276,377.7,1279.7,366.7,1279.7,333.9z"/>
	<path fill="#686868" d="M1385.4,559.9V268.3c0-7.3-3.6-10.9-10.9-10.9h-32.8c-7.3,0-10.9,0-10.9-14.6c0-18.2,3.6-18.2,10.9-18.2
		h116.6c7.3,0,10.9,0,10.9,18.2c7.3,10.9,3.6,10.9-7.3,10.9h-29.2c-7.3,0-10.9,3.6-10.9,10.9v291.6c0,7.3,0,10.9-18.2,10.9
		C1385.4,570.8,1385.4,567.2,1385.4,559.9z"/>
	<path fill="#686868" d="M1480.1,570.8c-10.9,0-14.6,0-14.6-21.9s0-21.9,14.6-21.9h7.3c10.9,0,14.6,0,14.6,21.9s0,21.9-14.6,21.9
		H1480.1z"/>
</g>
<g>
	<path fill="#686868" d="M1528.4,336.5v-54.7c0-36.4,21.9-69.2,65.6-69.2s69.2,29.2,69.2,69.2c0,10.9-3.6,10.9-18.2,10.9
		c-10.9,0-18.2,0-18.2-7.3c0-25.5-10.9-40.1-32.8-40.1s-32.8,14.6-32.8,40.1v43.7c0,29.2,7.3,47.4,32.8,47.4
		c51,0,69.2,32.8,69.2,76.5v54.7c0,36.4-21.9,69.2-65.6,69.2s-69.2-29.2-69.2-69.2c0-10.9,3.6-10.9,18.2-10.9
		c10.9,0,18.2,0,18.2,7.3c0,25.5,10.9,40.1,32.8,40.1s32.8-14.6,32.8-40.1v-43.7c0-29.2-7.3-47.4-32.8-47.4
		C1546.6,409.4,1528.4,376.6,1528.4,336.5z"/>
	<path fill="#686868" d="M1739.8,555.2V263.6c0-7.3-3.6-10.9-10.9-10.9H1696c-7.3,0-10.9,0-10.9-14.6c0-18.2,3.6-18.2,10.9-18.2
		h116.6c7.3,0,10.9,0,10.9,18.2c0,14.6-3.6,14.6-10.9,14.6h-29.2c-7.3,0-10.9,3.6-10.9,10.9v291.6c0,7.3,0,10.9-18.2,10.9
		C1739.8,569.7,1739.8,566.1,1739.8,555.2z"/>
	<path fill="#686868" d="M1907.4,245.4l51,313.4c0,3.6,0,3.6,0,7.3c0,3.6-3.6,7.3-14.6,7.3c-18.2,0-18.2-3.6-18.2-10.9l-7.3-32.8
		c0-7.3-7.3-7.3-10.9-7.3h-40.1c-7.3,0-10.9,0-10.9,7.3l-7.3,32.8c0,7.3-3.6,10.9-18.2,10.9c-10.9,0-14.6-3.6-14.6-7.3
		c0,0,0-3.6,0-7.3l51-313.4c3.6-14.6,3.6-25.5,21.9-25.5C1903.8,219.9,1903.8,234.4,1907.4,245.4z M1907.4,475c0,0,0,0-18.2-116.6
		c-3.6-14.6-3.6-14.6-7.3-14.6c-3.6,0-3.6,0-7.3,14.6C1860,475,1860,475,1860,475c0,3.6,3.6,7.3,10.9,7.3h29.2
		C1907.4,482.3,1907.4,482.3,1907.4,475z"/>
	<path fill="#686868" d="M1991.2,555.2V402.1c0-7.3-3.6-14.6-10.9-36.4l-40.1-134.8c0-3.6,0-3.6,0-7.3c0-3.6,3.6-7.3,14.6-7.3
		c18.2,0,18.2,3.6,21.9,10.9l21.9,72.9c3.6,18.2,7.3,18.2,10.9,18.2s3.6-3.6,10.9-18.2l21.9-72.9c3.6-7.3,3.6-10.9,21.9-10.9
		c10.9,0,14.6,3.6,14.6,7.3c0,0,0,3.6,0,7.3L2038.6,362c-7.3,21.9-7.3,29.2-7.3,36.4v153.1c0,7.3,0,10.9-18.2,10.9
		C1991.2,569.7,1991.2,566.1,1991.2,555.2z"/>
	<path fill="#686868" d="M2086,569.7c-10.9,0-14.6,0-14.6-21.9s0-21.9,14.6-21.9h7.3c10.9,0,14.6,0,14.6,21.9s0,21.9-14.6,21.9H2086
		z"/>
</g>
<g>
	<path fill="#686868" d="M2172.3,496.9c0,25.5,10.9,40.1,36.4,40.1s36.4-14.6,36.4-40.1v-58.3c0-7.3-3.6-10.9-10.9-10.9l0,0
		c-7.3,0-10.9,0-10.9-14.6c0-18.2,3.6-18.2,10.9-18.2h36.4c7.3,0,10.9,0,10.9,18.2v91.1c0,43.7-29.2,69.2-72.9,69.2
		c-51,0-72.9-29.2-72.9-69.2V281.9c0-36.4,21.9-69.2,72.9-69.2s72.9,29.2,72.9,69.2c0,10.9-3.6,10.9-18.2,10.9
		c-10.9,0-18.2,0-18.2-7.3c0-25.5-10.9-40.1-36.4-40.1s-36.4,14.6-36.4,40.1C2172.3,285.5,2172.3,496.9,2172.3,496.9z"/>
	<path fill="#686868" d="M2314.4,551.6V230.9c0-18.2,3.6-18.2,10.9-18.2h72.9c51,0,58.3,21.9,58.3,69.2v51c0,47.4-7.3,69.2-51,69.2
		c-3.6,0-3.6,0-3.6,3.6c0,0,0,3.6,3.6,7.3l51,138.5c0,0,0,3.6,0,7.3s-3.6,3.6-14.6,3.6c-18.2,0-18.2-3.6-21.9-10.9l-51-134.8
		c-3.6-7.3-7.3-10.9-10.9-10.9c-3.6,0-7.3,3.6-7.3,10.9v138.5c0,7.3,0,10.9-18.2,10.9C2314.4,562.5,2314.4,558.9,2314.4,551.6z
		 M2423.8,325.6v-36.4c0-32.8,0-43.7-29.2-43.7h-32.8c-7.3,0-10.9,3.6-10.9,10.9v102c0,7.3,3.6,10.9,10.9,10.9h32.8
		C2423.8,369.4,2423.8,358.4,2423.8,325.6z"/>
	<path fill="#686868" d="M2635.2,500.6c0,36.4-21.9,69.2-72.9,69.2s-72.9-29.2-72.9-69.2V278.2c0-36.4,21.9-69.2,72.9-69.2
		s72.9,29.2,72.9,69.2V500.6z M2525.8,496.9c0,25.5,10.9,40.1,36.4,40.1s36.4-14.6,36.4-40.1v-215c0-25.5-10.9-40.1-36.4-40.1
		s-36.4,14.6-36.4,40.1V496.9z"/>
	<path fill="#686868" d="M2766.4,420.4c0,7.3,3.6,10.9,7.3,10.9s3.6-3.6,3.6-10.9l7.3-193.2c0-7.3,0-10.9,18.2-10.9
		c14.6,0,18.2,3.6,18.2,10.9l-10.9,324.4c0,7.3,0,10.9-18.2,10.9s-21.9-3.6-21.9-10.9l-10.9-65.6c-3.6-29.2-10.9-32.8-18.2-32.8
		c-7.3,0-10.9,0-18.2,32.8l-10.9,65.6c0,7.3-3.6,10.9-21.9,10.9c-14.6,0-18.2-3.6-18.2-10.9l-7.3-324.4c0-7.3,3.6-10.9,18.2-10.9
		c14.6,0,18.2,3.6,18.2,10.9l7.3,193.2c0,7.3,0,10.9,3.6,10.9c3.6,0,3.6-3.6,7.3-10.9l10.9-54.7c7.3-32.8,7.3-40.1,14.6-40.1
		c3.6,0,7.3,7.3,14.6,40.1L2766.4,420.4z"/>
	<path fill="#686868" d="M2857.5,562.5c-10.9,0-14.6,0-14.6-21.9c0-21.9,0-21.9,14.6-21.9h7.3c10.9,0,14.6,0,14.6,21.9
		c0,21.9,0,21.9-14.6,21.9H2857.5z"/>
</g>
</svg>
