<svg xmlns="http://www.w3.org/2000/svg" viewBox="0 0 612 792" enable-background="new 0 0 612 792"><path fill="#7FCAE8" d="M0 302.4h367.2v162.8H0z"/><path fill="#2ABCB4" d="M0 465.2h489.6V628H0z"/><path fill="#166B5B" d="M.4 627.8h612v162.8H.4z"/><g fill="#fff"><path d="M954.4-822.3v-57c0-40.7 24.4-77.4 73.3-77.4 53 0 77.4 32.6 77.4 77.4 0 12.2-4.1 12.2-20.4 12.2-12.2 0-20.4 0-20.4-8.1 0-28.5-12.2-44.8-36.7-44.8-20.4 0-32.6 16.3-32.6 44.8v48.9c0 32.6 8.1 53 36.7 53 57 0 77.4 36.7 77.4 85.6v61.1c0 40.7-24.4 77.4-73.3 77.4s-77.4-32.6-77.4-77.4c0-12.2 4.1-12.2 20.4-12.2 12.2 0 20.4 0 20.4 8.1 0 28.5 12.2 44.8 36.7 44.8 24.4 0 36.7-16.3 36.7-44.8v-57c0-32.6-8.1-53-36.7-53-61.2-.1-81.5-36.8-81.5-81.6zM1190.6-573.8v-325.9c0-8.1-4.1-12.2-12.2-12.2h-36.7c-8.1-4.1-12.2-4.1-12.2-20.4 0-20.4 4.1-20.4 12.2-20.4h130.4c8.1 0 12.2 0 12.2 20.4 4.1 16.3 0 16.3-8.1 16.3h-32.6c-8.1 0-12.2 4.1-12.2 12.2v325.9c0 8.1 0 12.2-20.4 12.2-20.4 4.1-20.4.1-20.4-8.1zM1378-924.1l57 350.4v8.1c0 4.1-4.1 8.1-16.3 8.1-20.4 0-20.4-4.1-20.4-12.2l-8.1-36.7c0-8.1-8.1-8.1-12.2-8.1h-44.8c-8.1 0-12.2 0-12.2 8.1l-8.1 36.7c0 8.1-4.1 12.2-20.4 12.2-12.2 0-16.3-4.1-16.3-8.1v-8.1l57-350.4c4.1-16.3 4.1-28.5 24.4-28.5 16.4-.1 16.4 16.2 20.4 28.5zm0 256.6l-20.4-130.4c-4.1-16.3-4.1-16.3-8.1-16.3-4.1 0-4.1 0-8.1 16.3l-16.3 130.4c0 4.1 4.1 8.1 12.2 8.1h32.6c8.1.1 8.1.1 8.1-8.1zM1459.5-573.8v-358.5c0-20.4 4.1-20.4 12.2-20.4h81.5c57 0 65.2 24.4 65.2 77.4v57c0 53-8.1 77.4-57 77.4-4.1 0-4.1 0-4.1 4.1 0 0 0 4.1 4.1 8.1l57 154.8v8.1s-4.1 4.1-16.3 4.1c-20.4 0-20.4-4.1-24.4-12.2l-57-150.7c-4.1-8.1-8.1-12.2-12.2-12.2s-8.1 4.1-8.1 12.2v154.8c0 8.1 0 12.2-20.4 12.2-20.5-4-20.5-8-20.5-16.2zm122.2-252.6v-40.7c0-36.7 0-48.9-32.6-48.9h-36.7c-8.1 0-12.2 4.1-12.2 12.2v114.1c0 8.1 4.1 12.2 12.2 12.2h36.7c28.5 0 32.6-12.2 32.6-48.9zM1699.9-573.8v-325.9c0-8.1-4.1-12.2-12.2-12.2H1651c-8.1 0-12.2 0-12.2-16.3 0-20.4 4.1-20.4 12.2-20.4h130.4c8.1 0 12.2 0 12.2 20.4 8.1 12.2 4.1 12.2-8.1 12.2h-32.6c-8.1 0-12.2 4.1-12.2 12.2v325.9c0 8.1 0 12.2-20.4 12.2-20.4 4.1-20.4.1-20.4-8.1zM1805.8-561.6c-12.2 0-16.3 0-16.3-24.4s0-24.4 16.3-24.4h8.1c12.2 0 16.3 0 16.3 24.4s0 24.4-16.3 24.4h-8.1z"/></g><g fill="#fff"><path d="M1859.7-823.5v-61.1c0-40.7 24.4-77.4 73.3-77.4s77.4 32.6 77.4 77.4c0 12.2-4.1 12.2-20.4 12.2-12.2 0-20.4 0-20.4-8.1 0-28.5-12.2-44.8-36.7-44.8-24.4 0-36.7 16.3-36.7 44.8v48.9c0 32.6 8.1 53 36.7 53 57 0 77.4 36.7 77.4 85.6v61.1c0 40.7-24.4 77.4-73.3 77.4s-77.4-32.6-77.4-77.4c0-12.2 4.1-12.2 20.4-12.2 12.2 0 20.4 0 20.4 8.1 0 28.5 12.2 44.8 36.7 44.8 24.4 0 36.7-16.3 36.7-44.8v-48.9c0-32.6-8.1-53-36.7-53-57-4.1-77.4-40.8-77.4-85.6zM2096-579.1V-905c0-8.1-4.1-12.2-12.2-12.2h-36.7c-8.1 0-12.2 0-12.2-16.3 0-20.4 4.1-20.4 12.2-20.4h130.4c8.1 0 12.2 0 12.2 20.4 0 16.3-4.1 16.3-12.2 16.3h-32.6c-8.1 0-12.2 4.1-12.2 12.2v325.9c0 8.1 0 12.2-20.4 12.2-16.3 4.1-16.3 0-16.3-12.2zM2283.4-925.4l57 350.4v8.1c0 4.1-4.1 8.1-16.3 8.1-20.4 0-20.4-4.1-20.4-12.2l-8.1-36.7c0-8.1-8.1-8.1-12.2-8.1h-44.8c-8.1 0-12.2 0-12.2 8.1l-8.1 36.7c0 8.1-4.1 12.2-20.4 12.2-12.2 0-16.3-4.1-16.3-8.1v-8.1l57-350.4c4.1-16.3 4.1-28.5 24.4-28.5 16.4 0 16.4 16.3 20.4 28.5zm0 256.7L2263-799.1c-4.1-16.3-4.1-16.3-8.1-16.3-4.1 0-4.1 0-8.1 16.3l-16.3 130.4c0 4.1 4.1 8.1 12.2 8.1h32.6c8.1 0 8.1 0 8.1-8.1zM2377.1-579.1v-171.1c0-8.1-4.1-16.3-12.2-40.7l-44.8-150.7v-8.1c0-4.1 4.1-8.1 16.3-8.1 20.4 0 20.4 4.1 24.4 12.2l24.4 81.5c4.1 20.4 8.1 20.4 12.2 20.4s4.1-4.1 12.2-20.4l24.4-81.5c4.1-8.1 4.1-12.2 24.4-12.2 12.2 0 16.3 4.1 16.3 8.1v8.1l-44.8 146.7c-8.1 24.4-8.1 32.6-8.1 40.7v171.1c0 8.1 0 12.2-20.4 12.2-24.3 8.1-24.3 4-24.3-8.2zM2483-562.8c-12.2 0-16.3 0-16.3-24.4s0-24.4 16.3-24.4h8.1c12.2 0 16.3 0 16.3 24.4s0 24.4-16.3 24.4h-8.1z"/></g><g fill="#fff"><path d="M2579.5-644.2c0 28.5 12.2 44.8 40.7 44.8s40.7-16.3 40.7-44.8v-65.2c0-8.1-4.1-12.2-12.2-12.2s-12.2 0-12.2-16.3c0-20.4 4.1-20.4 12.2-20.4h40.7c8.1 0 12.2 0 12.2 20.4v101.8c0 48.9-32.6 77.4-81.5 77.4-57 0-81.5-32.6-81.5-77.4v-248.5c0-40.7 24.4-77.4 81.5-77.4 57 0 81.5 32.6 81.5 77.4 0 12.2-4.1 12.2-20.4 12.2-12.2 0-20.4 0-20.4-8.1 0-28.5-12.2-44.8-40.7-44.8s-40.7 16.3-40.7 44.8c.1 0 .1 236.3.1 236.3zM2738.4-583.1v-358.5c0-20.4 4.1-20.4 12.2-20.4h81.5c57 0 65.2 24.4 65.2 77.4v57c0 53-8.1 77.4-57 77.4-4.1 0-4.1 0-4.1 4.1 0 0 0 4.1 4.1 8.1l57 154.8v8.1s-4.1 4.1-16.3 4.1c-20.4 0-20.4-4.1-24.4-12.2l-57-150.7c-4.1-8.1-8.1-12.2-12.2-12.2s-8.1 4.1-8.1 12.2v154.8c0 8.1 0 12.2-20.4 12.2-20.5-4-20.5-8-20.5-16.2zm122.2-252.6v-40.7c0-36.7 0-48.9-32.6-48.9h-36.7c-8.1 0-12.2 4.1-12.2 12.2V-799c0 8.1 4.1 12.2 12.2 12.2h36.7c32.6 0 32.6-12.2 32.6-48.9zM3096.9-640.1c0 40.7-24.4 77.4-81.5 77.4-57 0-81.5-32.6-81.5-77.4v-248.5c0-40.7 24.4-77.4 81.5-77.4 57 0 81.5 32.6 81.5 77.4v248.5zm-122.2-4.1c0 28.5 12.2 44.8 40.7 44.8s40.7-16.3 40.7-44.8v-240.4c0-28.5-12.2-44.8-40.7-44.8s-40.7 16.3-40.7 44.8v240.4zM3243.6-729.7c0 8.1 4.1 12.2 8.1 12.2s4.1-4.1 4.1-12.2l8.1-215.9c0-8.1 0-12.2 20.4-12.2 16.3 0 20.4 4.1 20.4 12.2L3292.5-583c0 8.1 0 12.2-20.4 12.2s-24.4-4.1-24.4-12.2l-12.2-73.3c-4.1-32.6-12.2-36.7-20.4-36.7s-12.2 0-20.4 36.7l-12.2 73.3c0 8.1-4.1 12.2-24.4 12.2-16.3 0-20.4-4.1-20.4-12.2l-8.1-362.6c0-8.1 4.1-12.2 20.4-12.2s20.4 4.1 20.4 12.2l8.1 215.9c0 8.1 0 12.2 4.1 12.2s4.1-4.1 8.1-12.2l12.2-61.1c8.1-36.7 8.1-44.8 16.3-44.8 4.1 0 8.1 8.1 16.3 44.8l8.1 61.1zM3345.4-570.9c-12.2 0-16.3 0-16.3-24.4s0-24.4 16.3-24.4h8.1c12.2 0 16.3 0 16.3 24.4s0 24.4-16.3 24.4h-8.1z"/></g></svg>