<?xml version="1.0" encoding="UTF-8" standalone="no"?>
<svg width="39px" height="39px" viewBox="0 0 39 39" version="1.1" xmlns="http://www.w3.org/2000/svg" xmlns:xlink="http://www.w3.org/1999/xlink" xmlns:sketch="http://www.bohemiancoding.com/sketch/ns">
    <!-- Generator: Sketch 3.0.4 (8054) - http://www.bohemiancoding.com/sketch -->
    <title>twitter</title>
    <desc>Created with Sketch.</desc>
    <defs></defs>
    <g id="Page-1" stroke="none" stroke-width="1" fill="none" fill-rule="evenodd" sketch:type="MSPage">
        <g id="Desktop" sketch:type="MSArtboardGroup" transform="translate(-512.000000, -381.000000)" fill="#146B5A">
            <g id="Header" sketch:type="MSLayerGroup" transform="translate(-46.000000, -7.000000)">
                <path d="M584.387626,403.975412 C584.395383,404.130558 584.399262,404.289582 584.399262,404.448606 C584.399262,409.293032 580.710672,414.882157 573.965711,414.882157 C571.894515,414.882157 569.96683,414.27321 568.345557,413.233734 C568.628698,413.268641 568.923474,413.284156 569.218251,413.284156 C570.93649,413.284156 572.518977,412.698481 573.771779,411.717184 C572.169899,411.686155 570.812374,410.627285 570.346937,409.168915 C570.571898,409.21158 570.800738,409.234852 571.037335,409.234852 C571.370898,409.234852 571.696704,409.192187 572.003117,409.106857 C570.327543,408.769415 569.063106,407.287773 569.063106,405.511355 L569.063106,405.464811 C569.555693,405.740195 570.121975,405.903098 570.723165,405.922491 C569.73799,405.267 569.090256,404.146072 569.090256,402.869999 C569.090256,402.198993 569.272552,401.570653 569.586722,401.027643 C571.398049,403.246227 574.097585,404.708475 577.146198,404.859743 C577.08414,404.592116 577.053111,404.312854 577.053111,404.025834 C577.053111,401.997304 578.693777,400.356638 580.718429,400.356638 C581.77342,400.356638 582.723688,400.802682 583.394693,401.516352 C584.228601,401.34957 585.015966,401.047036 585.721879,400.624264 C585.450374,401.481444 584.868577,402.198993 584.112242,402.652794 C584.853063,402.567464 585.558976,402.369654 586.218345,402.078755 C585.725758,402.811819 585.105175,403.459552 584.387626,403.975412 L584.387626,403.975412 Z M576.816514,388.724586 C566.530351,388.724586 558.199025,397.059791 558.199025,407.342074 C558.199025,417.624358 566.530351,425.959563 576.816514,425.959563 C587.098797,425.959563 595.434002,417.624358 595.434002,407.342074 C595.434002,397.059791 587.098797,388.724586 576.816514,388.724586 L576.816514,388.724586 Z" id="twitter" sketch:type="MSShapeGroup"></path>
            </g>
        </g>
    </g>
</svg>